<svg width="68" height="68" viewBox="0 0 68 68" fill="none" xmlns="http://www.w3.org/2000/svg">
<g clip-path="url(#clip0_230_6990)" filter="url(#filter0_d_230_6990)">
<circle cx="34" cy="30" r="28.5" fill="url(#paint0_linear_230_6990)" stroke="white" stroke-width="3"/>
<path d="M18 46L20.2601 37.7827C18.8654 35.3773 18.1326 32.6507 18.134 29.8547C18.138 21.1133 25.2853 14 34.067 14C38.3286 14.0013 42.3289 15.6533 45.3379 18.6507C48.3455 21.648 50.0013 25.632 50 29.8693C49.996 38.612 42.8487 45.7253 34.067 45.7253C31.401 45.724 28.7738 45.0587 26.4468 43.7947L18 46ZM26.838 40.924C29.0833 42.2507 31.2268 43.0453 34.0616 43.0467C41.3603 43.0467 47.3059 37.1347 47.3099 29.8667C47.3126 22.584 41.3951 16.68 34.0723 16.6773C26.7683 16.6773 20.8268 22.5893 20.8241 29.856C20.8227 32.8227 21.6962 35.044 23.1632 37.368L21.8248 42.232L26.838 40.924ZM42.0931 33.6387C41.994 33.4733 41.7287 33.3747 41.3295 33.176C40.9316 32.9773 38.9743 32.0187 38.6086 31.8867C38.2442 31.7547 37.9789 31.688 37.7123 32.0853C37.447 32.4813 36.6834 33.3747 36.4516 33.6387C36.2199 33.9027 35.9868 33.936 35.5889 33.7373C35.191 33.5387 33.9076 33.1213 32.387 31.7707C31.2041 30.72 30.4043 29.4227 30.1725 29.0253C29.9407 28.6293 30.1484 28.4147 30.3466 28.2173C30.5262 28.04 30.7445 27.7547 30.9441 27.5227C31.1464 27.2933 31.2121 27.128 31.3461 26.8627C31.4787 26.5987 31.413 26.3667 31.3126 26.168C31.2121 25.9707 30.4163 24.02 30.0854 23.2267C29.7612 22.4547 29.433 22.5587 29.1891 22.5467L28.4255 22.5333C28.1603 22.5333 27.7289 22.632 27.3645 23.0293C27.0001 23.4267 25.9712 24.384 25.9712 26.3347C25.9712 28.2853 27.398 30.1693 27.5962 30.4333C27.7959 30.6973 30.4029 34.7 34.3965 36.416C35.3464 36.824 36.0886 37.068 36.666 37.2507C37.6199 37.552 38.488 37.5093 39.1739 37.408C39.9389 37.2947 41.5291 36.4493 41.8613 35.524C42.1936 34.5973 42.1936 33.804 42.0931 33.6387Z" fill="white"/>
</g>
<defs>
<filter id="filter0_d_230_6990" x="0" y="0" width="68" height="68" filterUnits="userSpaceOnUse" color-interpolation-filters="sRGB">
<feFlood flood-opacity="0" result="BackgroundImageFix"/>
<feColorMatrix in="SourceAlpha" type="matrix" values="0 0 0 0 0 0 0 0 0 0 0 0 0 0 0 0 0 0 127 0" result="hardAlpha"/>
<feOffset dy="4"/>
<feGaussianBlur stdDeviation="2"/>
<feComposite in2="hardAlpha" operator="out"/>
<feColorMatrix type="matrix" values="0 0 0 0 0 0 0 0 0 0 0 0 0 0 0 0 0 0 0.25 0"/>
<feBlend mode="normal" in2="BackgroundImageFix" result="effect1_dropShadow_230_6990"/>
<feBlend mode="normal" in="SourceGraphic" in2="effect1_dropShadow_230_6990" result="shape"/>
</filter>
<linearGradient id="paint0_linear_230_6990" x1="34" y1="0" x2="34" y2="60" gradientUnits="userSpaceOnUse">
<stop stop-color="#57D163"/>
<stop offset="1" stop-color="#23B33A"/>
</linearGradient>
<clipPath id="clip0_230_6990">
<rect width="60" height="60" fill="white" transform="translate(4)"/>
</clipPath>
</defs>
</svg>
