<svg width="132" height="32" viewBox="0 0 132 32" fill="none" xmlns="http://www.w3.org/2000/svg">
<path opacity="0.4" d="M30.5334 14.1581C29.1475 15.544 26.9006 15.544 25.5147 14.1581C24.1289 12.7723 24.1289 10.5253 25.5147 9.13949C26.9006 7.75363 29.1475 7.75363 30.5334 9.13949C31.9192 10.5253 31.9192 12.7723 30.5334 14.1581Z" fill="#155EEF"/>
<path opacity="0.6" d="M30.5302 14.1572C29.1443 15.5431 26.8974 15.5431 25.5115 14.1572L20.5553 9.20101C19.1695 7.81516 16.9226 7.81516 15.5367 9.20102C14.1508 10.5869 14.1509 12.8338 15.5367 14.2196L20.4929 19.1758C21.8788 20.5617 24.1257 20.5617 25.5115 19.1758L30.5302 14.1572Z" fill="#155EEF"/>
<path d="M25.5114 19.1768C24.1255 20.5626 21.8786 20.5626 20.4928 19.1768L10.8737 9.55773C9.0259 7.70992 6.03 7.70992 4.18219 9.55773L0 13.7399C1.38586 12.3541 3.63278 12.3541 5.01863 13.7399L15.4741 24.1954C16.86 25.5813 19.1069 25.5813 20.4928 24.1954L25.5114 19.1768Z" fill="#155EEF"/>
<path d="M43.712 24L43.232 22.384H39.504L39.024 24H35.92L39.616 12.8H43.104L46.8 24H43.712ZM40.24 19.92H42.496L41.36 16.112L40.24 19.92ZM52.916 16H55.572V27.2H52.916V23.264C52.372 23.904 51.6147 24.224 50.644 24.224C49.5773 24.224 48.6813 23.824 47.956 23.024C47.2413 22.2133 46.884 21.2053 46.884 20C46.884 18.7947 47.2413 17.792 47.956 16.992C48.6813 16.1813 49.5773 15.776 50.644 15.776C51.6147 15.776 52.372 16.096 52.916 16.736V16ZM50.02 21.264C50.3293 21.584 50.7347 21.744 51.236 21.744C51.7373 21.744 52.1427 21.584 52.452 21.264C52.7613 20.944 52.916 20.5227 52.916 20C52.916 19.4773 52.7613 19.056 52.452 18.736C52.1427 18.416 51.7373 18.256 51.236 18.256C50.7347 18.256 50.3293 18.416 50.02 18.736C49.7107 19.056 49.556 19.4773 49.556 20C49.556 20.5227 49.7107 20.944 50.02 21.264ZM62.1838 16H64.8398V24H62.1838V23.2C61.7038 23.8827 60.9624 24.224 59.9598 24.224C59.0958 24.224 58.3864 23.9307 57.8318 23.344C57.2878 22.7467 57.0158 21.8933 57.0158 20.784V16H59.6718V20.448C59.6718 20.864 59.7784 21.1787 59.9918 21.392C60.2158 21.6053 60.5091 21.712 60.8718 21.712C61.2878 21.712 61.6078 21.5893 61.8318 21.344C62.0664 21.088 62.1838 20.7253 62.1838 20.256V16ZM72.0098 16H74.6658V24H72.0098V23.264C71.4658 23.904 70.7084 24.224 69.7378 24.224C68.6711 24.224 67.7751 23.824 67.0498 23.024C66.3351 22.2133 65.9778 21.2053 65.9778 20C65.9778 18.7947 66.3351 17.792 67.0498 16.992C67.7751 16.1813 68.6711 15.776 69.7378 15.776C70.7084 15.776 71.4658 16.096 72.0098 16.736V16ZM69.1138 21.264C69.4231 21.584 69.8284 21.744 70.3298 21.744C70.8311 21.744 71.2364 21.584 71.5458 21.264C71.8551 20.944 72.0098 20.5227 72.0098 20C72.0098 19.4773 71.8551 19.056 71.5458 18.736C71.2364 18.416 70.8311 18.256 70.3298 18.256C69.8284 18.256 69.4231 18.416 69.1138 18.736C68.8044 19.056 68.6498 19.4773 68.6498 20C68.6498 20.5227 68.8044 20.944 69.1138 21.264ZM79.1815 21.312H83.5175V24H76.3175V12.8H83.4375V15.472H79.1815V17.024H83.0375V19.664H79.1815V21.312ZM92.784 24H89.776L88.384 22.032L86.992 24H84L86.896 19.92L84.112 16H87.104L88.384 17.808L89.664 16H92.672L89.888 19.92L92.784 24ZM98.4773 15.776C99.5439 15.776 100.435 16.1813 101.149 16.992C101.875 17.792 102.237 18.7947 102.237 20C102.237 21.2053 101.875 22.2133 101.149 23.024C100.435 23.824 99.5439 24.224 98.4773 24.224C97.5066 24.224 96.7493 23.904 96.2053 23.264V27.2H93.5493V16H96.2053V16.736C96.7493 16.096 97.5066 15.776 98.4773 15.776ZM96.6693 21.264C96.9786 21.584 97.3839 21.744 97.8853 21.744C98.3866 21.744 98.7919 21.584 99.1013 21.264C99.4106 20.944 99.5653 20.5227 99.5653 20C99.5653 19.4773 99.4106 19.056 99.1013 18.736C98.7919 18.416 98.3866 18.256 97.8853 18.256C97.3839 18.256 96.9786 18.416 96.6693 18.736C96.3599 19.056 96.2053 19.4773 96.2053 20C96.2053 20.5227 96.3599 20.944 96.6693 21.264ZM106.049 17.488C106.198 16.9653 106.497 16.56 106.945 16.272C107.393 15.984 107.894 15.84 108.449 15.84V18.784C107.841 18.688 107.286 18.8 106.785 19.12C106.294 19.44 106.049 19.9627 106.049 20.688V24H103.393V16H106.049V17.488ZM111.62 20.976C111.887 21.6267 112.484 21.952 113.412 21.952C113.988 21.952 114.474 21.7653 114.868 21.392L116.788 22.736C115.999 23.728 114.852 24.224 113.348 24.224C111.994 24.224 110.906 23.8293 110.084 23.04C109.274 22.24 108.868 21.232 108.868 20.016C108.868 18.8107 109.268 17.8027 110.068 16.992C110.868 16.1813 111.887 15.776 113.124 15.776C114.319 15.776 115.306 16.176 116.084 16.976C116.863 17.776 117.252 18.7787 117.252 19.984C117.252 20.336 117.215 20.6667 117.14 20.976H111.62ZM111.588 19.136H114.66C114.447 18.3893 113.946 18.016 113.156 18.016C112.335 18.016 111.812 18.3893 111.588 19.136ZM120.625 18.336C120.625 18.4853 120.758 18.608 121.025 18.704C121.302 18.8 121.633 18.8907 122.016 18.976C122.411 19.0613 122.801 19.184 123.185 19.344C123.579 19.4933 123.91 19.7547 124.177 20.128C124.454 20.5013 124.593 20.9707 124.593 21.536C124.593 22.4533 124.251 23.1307 123.569 23.568C122.886 24.0053 122.075 24.224 121.137 24.224C119.345 24.224 118.15 23.5893 117.553 22.32L119.873 21.152C120.075 21.7387 120.491 22.032 121.121 22.032C121.601 22.032 121.841 21.888 121.841 21.6C121.841 21.4507 121.707 21.328 121.441 21.232C121.174 21.136 120.849 21.04 120.465 20.944C120.081 20.848 119.697 20.72 119.312 20.56C118.929 20.4 118.603 20.144 118.337 19.792C118.07 19.4293 117.937 18.9867 117.937 18.464C117.937 17.6107 118.251 16.9493 118.881 16.48C119.51 16.0107 120.267 15.776 121.153 15.776C122.731 15.776 123.83 16.3947 124.449 17.632L122.209 18.64C121.974 18.1813 121.643 17.952 121.217 17.952C120.822 17.952 120.625 18.08 120.625 18.336ZM127.734 18.336C127.734 18.4853 127.867 18.608 128.134 18.704C128.411 18.8 128.742 18.8907 129.126 18.976C129.521 19.0613 129.91 19.184 130.294 19.344C130.689 19.4933 131.019 19.7547 131.286 20.128C131.563 20.5013 131.702 20.9707 131.702 21.536C131.702 22.4533 131.361 23.1307 130.678 23.568C129.995 24.0053 129.185 24.224 128.246 24.224C126.454 24.224 125.259 23.5893 124.662 22.32L126.982 21.152C127.185 21.7387 127.601 22.032 128.23 22.032C128.71 22.032 128.95 21.888 128.95 21.6C128.95 21.4507 128.817 21.328 128.55 21.232C128.283 21.136 127.958 21.04 127.574 20.944C127.19 20.848 126.806 20.72 126.422 20.56C126.038 20.4 125.713 20.144 125.446 19.792C125.179 19.4293 125.046 18.9867 125.046 18.464C125.046 17.6107 125.361 16.9493 125.99 16.48C126.619 16.0107 127.377 15.776 128.262 15.776C129.841 15.776 130.939 16.3947 131.558 17.632L129.318 18.64C129.083 18.1813 128.753 17.952 128.326 17.952C127.931 17.952 127.734 18.08 127.734 18.336Z" fill="white"/>
</svg>
