<svg width="106" height="113" viewBox="0 0 106 113" fill="none" xmlns="http://www.w3.org/2000/svg">
<path fill-rule="evenodd" clip-rule="evenodd" d="M23.9859 0.780273C23.2117 0.780273 22.5841 1.40787 22.5841 2.18205V12.6175H18.3009C17.8977 12.6175 17.5141 12.7911 17.2479 13.0939L12.7311 18.2337C12.5063 18.4896 12.3823 18.8185 12.3823 19.1591V27.4918H8.80001C8.02584 27.4918 7.39824 28.1194 7.39824 28.8936V42.9892H1.40177C0.627595 42.9892 0 43.6168 0 44.391V74.4512C0 75.2253 0.627595 75.8529 1.40177 75.8529H4.04956V88.7025C4.04956 89.4767 4.67716 90.1043 5.45134 90.1043H11.4478V93.0636C11.4478 93.3877 11.5601 93.7018 11.7656 93.9524L14.9586 97.8462C15.2248 98.1709 15.6226 98.3592 16.0425 98.3592H19.3133V104.356C19.3133 105.13 19.9409 105.757 20.7151 105.757H28.1523V108.872C28.1523 109.267 28.3189 109.644 28.6111 109.91L31.6093 112.635C31.8674 112.87 32.2035 113 32.5523 113H43.6107C43.9825 113 44.339 112.852 44.6019 112.589L47.7948 109.396C48.0577 109.134 48.2054 108.777 48.2054 108.405V102.346C48.9101 101.871 49.3735 101.065 49.3735 100.15C49.3735 98.688 48.1881 97.5025 46.7257 97.5025C45.2634 97.5025 44.0779 98.688 44.0779 100.15C44.0779 101.13 44.6104 101.986 45.4018 102.444V107.825L43.0301 110.196H33.0942L30.9558 108.252V105.757H36.0684C36.5362 106.506 37.3675 107.003 38.3151 107.003C39.7774 107.003 40.9629 105.818 40.9629 104.356C40.9629 102.893 39.7774 101.708 38.3151 101.708C37.3675 101.708 36.5362 102.206 36.0684 102.954H29.554H22.1168V98.3592H36.9912C37.3522 98.3592 37.6993 98.2199 37.9601 97.9704L43.3336 92.8305C43.6101 92.5661 43.7664 92.2001 43.7664 91.8176V80.1361C43.7664 79.7445 43.6026 79.3707 43.3146 79.1053L39.3429 75.4451C39.0841 75.2066 38.745 75.0742 38.393 75.0742H22.662C21.8878 75.0742 21.2602 75.7018 21.2602 76.4759V85.5096C21.2602 85.8593 21.391 86.1965 21.6268 86.4548L24.8976 90.0371C25.1632 90.328 25.5389 90.4937 25.9328 90.4937H34.9664C35.7406 90.4937 36.3682 89.8661 36.3682 89.0919V82.2388C36.3682 81.4646 35.7406 80.837 34.9664 80.837H31.7741C31.3284 80.0028 30.4491 79.4352 29.4372 79.4352C27.9749 79.4352 26.7894 80.6207 26.7894 82.083C26.7894 83.5454 27.9749 84.7308 29.4372 84.7308C30.3174 84.7308 31.0972 84.3014 31.5787 83.6406H33.5646V87.6901H26.5511L24.0638 84.9659V77.8777H37.8456L40.9629 80.7505V91.2186L36.4287 95.5556H20.7151H16.7058L14.2513 92.5623V90.1043H16.0425C16.8167 90.1043 17.4443 89.4767 17.4443 88.7025V81.5379C17.4443 80.7637 16.8167 80.1361 16.0425 80.1361H13.1962C12.7384 79.3447 11.8827 78.8122 10.9027 78.8122C9.44034 78.8122 8.25488 79.9977 8.25488 81.46C8.25488 82.9224 9.44034 84.1078 10.9027 84.1078C11.817 84.1078 12.623 83.6444 13.0988 82.9397H14.6407V87.3007H12.8496H6.85311V75.8529H8.48851C9.26268 75.8529 9.89028 75.2253 9.89028 74.4512V65.5888C10.595 65.1131 11.0584 64.307 11.0584 63.3927C11.0584 61.9304 9.87297 60.745 8.41063 60.745C6.9483 60.745 5.76284 61.9304 5.76284 63.3927C5.76284 64.3728 6.29531 65.2285 7.08674 65.6863V73.0494H5.45134H2.80354V45.7927H7.39824V55.2157C7.39824 55.9899 8.02584 56.6175 8.80001 56.6175H25.6992C26.0709 56.6175 26.4275 56.4698 26.6904 56.2069L32.085 50.8123V61.368C32.085 62.1421 32.7126 62.7697 33.4868 62.7697H38.3944C38.8511 63.3395 39.5529 63.7043 40.3399 63.7043C41.7162 63.7043 42.8319 62.5885 42.8319 61.2122C42.8319 59.8359 41.7162 58.7202 40.3399 58.7202C39.4175 58.7202 38.6121 59.2213 38.1812 59.9662H34.8885V47.4281C34.8885 46.8612 34.547 46.35 34.0232 46.1331C33.4994 45.9161 32.8965 46.036 32.4956 46.4369L25.1185 53.814H10.2018V44.391V30.2954H13.7841H22.2726V38.0644C21.793 38.5186 21.4938 39.1615 21.4938 39.8741C21.4938 41.2504 22.6096 42.3662 23.9859 42.3662C25.3622 42.3662 26.4779 41.2504 26.4779 39.8741C26.4779 38.8888 25.9061 38.037 25.0761 37.6326V28.8936V22.3351C25.9061 21.9307 26.4779 21.0789 26.4779 20.0936C26.4779 18.7173 25.3622 17.6015 23.9859 17.6015C22.6096 17.6015 21.4938 18.7173 21.4938 20.0936C21.4938 20.8063 21.793 21.4491 22.2726 21.9033V27.4918H15.1859V19.6875L18.9352 15.421H23.9859C24.7601 15.421 25.3876 14.7934 25.3876 14.0192V3.58382H45.4018V12.0633C44.7001 12.5042 44.2337 13.2851 44.2337 14.175C44.2337 15.5513 45.3494 16.667 46.7257 16.667C48.102 16.667 49.2178 15.5513 49.2178 14.175C49.2178 13.3527 48.8195 12.6234 48.2054 12.1696V2.18205C48.2054 1.40787 47.5778 0.780273 46.8036 0.780273H23.9859ZM32.5882 9.81391H36.6797V21.5732C36.6797 22.3474 37.3073 22.975 38.0815 22.975H42.9877V25.7007H32.6301V16.8421C33.064 16.3937 33.331 15.7828 33.331 15.1095C33.331 13.7332 32.2153 12.6175 30.839 12.6175C29.4627 12.6175 28.3469 13.7332 28.3469 15.1095C28.3469 16.1254 28.9548 16.9992 29.8266 17.3873V27.1024C29.8266 27.8766 30.4542 28.5042 31.2284 28.5042H44.3894C45.1636 28.5042 45.7912 27.8766 45.7912 27.1024V21.5732C45.7912 20.799 45.1636 20.1714 44.3894 20.1714H39.4832V8.41214C39.4832 7.63796 38.8556 7.01037 38.0815 7.01037H32.5882C32.1396 6.35223 31.384 5.9201 30.5275 5.9201C29.1512 5.9201 28.0354 7.03583 28.0354 8.41214C28.0354 9.78846 29.1512 10.9042 30.5275 10.9042C31.384 10.9042 32.1396 10.4721 32.5882 9.81391ZM36.9912 34.267C36.6248 34.267 36.273 34.4105 36.0111 34.6667L22.2462 48.129H17.3664V39.8053C18.0681 39.3644 18.5345 38.5835 18.5345 37.6936C18.5345 36.3173 17.4188 35.2016 16.0425 35.2016C14.6662 35.2016 13.5505 36.3173 13.5505 37.6936C13.5505 38.5159 13.9487 39.2451 14.5629 39.699V49.5308C14.5629 50.305 15.1904 50.9326 15.9646 50.9326H22.8177C23.1841 50.9326 23.5359 50.7891 23.7979 50.5329L37.5627 37.0706H45.2461V51.2441H40.4956V44.7384C41.1538 44.2898 41.5859 43.5342 41.5859 42.6777C41.5859 41.3014 40.4702 40.1856 39.0939 40.1856C37.7175 40.1856 36.6018 41.3014 36.6018 42.6777C36.6018 43.5342 37.034 44.2898 37.6921 44.7384V52.6458C37.6921 53.42 38.3197 54.0476 39.0939 54.0476H46.6479C47.422 54.0476 48.0496 53.42 48.0496 52.6458V35.6688C48.0496 34.8946 47.422 34.267 46.6479 34.267H36.9912ZM16.5876 60.9007C15.8135 60.9007 15.1859 61.5283 15.1859 62.3025V69.6228C15.1859 70.397 15.8135 71.0246 16.5876 71.0246H39.5239C39.9943 72.0364 41.0197 72.7379 42.2089 72.7379C43.8433 72.7379 45.1682 71.413 45.1682 69.7786C45.1682 68.1442 43.8433 66.8193 42.2089 66.8193C41.146 66.8193 40.214 67.3797 39.6922 68.2211H17.9894V63.7043H22.7447C23.2476 64.4556 24.1041 64.9503 25.0761 64.9503C26.6245 64.9503 27.8797 63.6951 27.8797 62.1467C27.8797 60.5984 26.6245 59.3432 25.0761 59.3432C23.9754 59.3432 23.0228 59.9776 22.564 60.9007H16.5876Z" fill="white"/>
<path fill-rule="evenodd" clip-rule="evenodd" d="M65.2474 0.430173C68.741 1.43934 71.2117 4.03011 72.5774 6.3216C78.4477 5.90244 82.3447 7.70439 84.7668 10.3677C87.038 12.8651 87.8844 15.9805 87.9891 18.3154C93.7751 23.0478 95.1116 29.4287 95.0413 32.7555C97.9638 35.1787 99.2993 38.2476 99.8562 40.6544C100.15 41.9264 100.235 43.0423 100.213 43.8255C100.206 44.0882 100.186 44.3523 100.145 44.5887C101.385 47.0789 101.383 49.8588 101.163 51.4398C106.24 57.7573 106.528 64.1517 105.496 68.9412C104.971 71.3764 104.108 73.3942 103.372 74.788C103.005 75.4853 102.664 76.0355 102.406 76.4124C102.355 76.4871 102.305 76.5577 102.257 76.623C102.278 83.8489 98.9594 87.3708 96.333 88.5053C96.218 93.8196 94.0236 97.5727 91.2331 100.08C88.5627 102.48 85.379 103.715 83.0198 104.164C80.8345 107.826 78.1918 110.172 75.2894 111.473C72.2596 112.83 69.0561 112.998 65.9865 112.474C59.8951 111.433 54.1472 107.637 50.7128 104.497C50.4547 104.26 50.3076 103.927 50.3076 103.577V6.23168C50.3076 5.87748 50.4584 5.54002 50.7222 5.30366C56.3294 0.279833 61.2702 -0.71867 65.2474 0.430173ZM97.5433 44.3012C97.5791 44.1683 97.6366 44.0415 97.7143 43.9264C97.7174 43.8774 97.7201 43.8209 97.7219 43.7567C97.7374 43.1942 97.6768 42.2902 97.4283 41.2161C96.9321 39.0716 95.7166 36.3645 93.0129 34.3279C92.6678 34.068 92.482 33.6479 92.5218 33.2177C92.6935 31.3641 92.2112 27.3351 89.5094 23.5456C89.4718 23.5309 89.4349 23.5132 89.399 23.4923C87.4163 22.3378 84.2117 21.0252 81.0677 20.8162C77.9823 20.6111 75.0793 21.4625 73.3095 24.4391C73.2549 24.6978 73.2216 25.1338 73.2129 25.7435C73.2036 26.3903 73.2216 27.1525 73.2407 27.9648L73.2419 28.0187L73.2422 28.0294C73.2804 29.6508 73.324 31.5044 73.1148 32.7597C72.974 33.604 72.447 34.2731 71.7631 34.7645C71.0821 35.2538 70.2035 35.6012 69.2346 35.8159C67.2951 36.2458 64.8447 36.1775 62.4709 35.4817C58.4846 34.3133 56.9695 30.8772 56.7037 29.2531C56.6342 28.8286 56.922 28.4282 57.3465 28.3588C57.7709 28.2893 58.1713 28.5771 58.2408 29.0015C58.4423 30.2329 59.6683 33.0372 62.909 33.9871C65.052 34.6152 67.2353 34.6637 68.8975 34.2953C69.7295 34.1109 70.3938 33.8304 70.8542 33.4996C71.3117 33.1709 71.5244 32.8276 71.5784 32.5037C71.7581 31.4255 71.7245 29.7412 71.6849 28.0553L71.6832 27.984C71.6644 27.186 71.6458 26.398 71.6555 25.7212C71.6652 25.048 71.7023 24.3941 71.8299 23.9348C71.8475 23.8714 71.873 23.8105 71.906 23.7535C74.0667 20.0152 77.6899 19.0307 81.171 19.2621C83.117 19.3915 85.0579 19.8988 86.7606 20.5378C86.5148 20.3259 86.2593 20.1174 85.9935 19.9128C85.6829 19.6736 85.503 19.3023 85.5078 18.9104C85.5308 17.0072 84.8866 14.2033 82.9232 12.0444C81.0131 9.944 77.6983 8.28314 72.0078 8.87284C71.495 8.92597 71.0025 8.65786 70.7687 8.19838C69.7285 6.1534 67.573 3.69586 64.5558 2.82433C61.7142 2.00351 57.7744 2.49853 52.7997 6.79497V12.9592C54.3042 11.5392 56.8809 10.2047 60.1573 11.4201C62.8163 12.4066 63.8902 14.0822 64.1858 15.6784C64.4677 17.2006 64.0205 18.5297 63.8864 18.8874C63.8357 19.0225 63.7483 19.1544 63.7036 19.2219L63.7033 19.2224C63.6511 19.3012 63.5853 19.3955 63.5168 19.4937L63.4894 19.533C63.3279 19.7647 63.1274 20.0548 62.9163 20.4C62.4923 21.0937 62.0414 21.9856 61.8141 22.991C61.5888 23.9877 61.5841 25.0887 62.0406 26.2321C62.4982 27.3782 63.446 28.634 65.2396 29.8914C65.5918 30.1383 65.6772 30.6239 65.4303 30.9761C65.1834 31.3283 64.6977 31.4136 64.3456 31.1667C62.3622 29.7763 61.1879 28.2967 60.5941 26.8096C59.9993 25.3199 60.0141 23.8898 60.2949 22.6476C60.5738 21.4141 61.1159 20.3591 61.5874 19.5877C61.8242 19.2004 62.0471 18.8785 62.2117 18.6423L62.2386 18.6038C62.3099 18.5015 62.3637 18.4242 62.4049 18.3622C62.4229 18.3349 62.4342 18.3169 62.4406 18.3065C62.5523 17.9972 62.8512 17.0253 62.6543 15.962C62.4631 14.9298 61.7848 13.6851 59.6155 12.8804C56.2505 11.6321 53.806 13.8318 52.9928 15.1329C52.9403 15.2169 52.8744 15.2874 52.7997 15.3435V59.526C53.5836 60.1549 54.521 60.7785 55.573 61.3253C57.7828 62.4739 60.45 63.259 63.2157 63.0837C65.9627 62.9096 68.8571 61.786 71.5568 59.0318C71.8579 58.7246 72.3509 58.7197 72.6581 59.0207C72.9652 59.3218 72.9702 59.8149 72.6691 60.122C69.7039 63.1471 66.4499 64.4393 63.3142 64.6381C61.4331 64.7573 59.6128 64.4824 57.9392 63.9722C59.9215 67.0492 61.4217 72.1562 59.0623 78.7627C57.1253 84.1863 56.4175 87.5407 56.3525 90.095C56.2883 92.616 56.8459 94.4062 57.5818 96.7685L57.5927 96.8038C57.7207 97.2144 57.4915 97.651 57.0808 97.7789C56.6702 97.9068 56.2336 97.6776 56.1057 97.2669L56.0734 97.1633C55.3487 94.8371 54.7247 92.8346 54.7955 90.0553C54.8668 87.2556 55.6386 83.718 57.5955 78.2389C60.5612 69.9349 56.8967 64.3982 54.7848 62.6708C54.074 62.2976 53.4088 61.8908 52.7997 61.4679V103.021C56.0649 105.895 61.1792 109.125 66.4062 110.018C69.1065 110.479 71.7895 110.31 74.2706 109.198C76.6106 108.15 78.869 106.22 80.821 102.985C76.8065 101.347 70.1597 97.6199 66.0239 91.7195C65.7771 91.3673 65.8624 90.8817 66.2146 90.6348C66.5668 90.3879 67.0525 90.4733 67.2993 90.8255C71.4459 96.7412 78.3518 100.401 82.0587 101.799C82.0597 101.798 82.0607 101.798 82.0617 101.798C84.051 101.516 87.0845 100.458 89.5674 98.2268C92.0085 96.0331 93.9565 92.6762 93.8408 87.641C93.8395 87.5885 93.8416 87.5366 93.8468 87.4854C89.784 86.5136 82.2461 84.0198 74.7417 79.3975C74.6922 79.367 74.6462 79.331 74.6046 79.2902C73.3995 78.1074 72.5735 76.7624 72.0115 75.4195C70.2757 75.0523 66.9281 75.3217 65.1036 79.0749C64.9156 79.4617 64.4496 79.6229 64.0627 79.4348C63.6759 79.2468 63.5148 78.7808 63.7028 78.394C65.6634 74.3609 69.1234 73.587 71.443 73.7714C70.6114 70.7718 70.8853 68.0685 70.9448 67.4812L70.9487 67.4428C71.017 66.7595 71.5569 65.7227 72.9085 65.1486C74.2471 64.58 76.3051 64.4909 79.4287 65.452C82.4273 66.3747 84.4733 66.6333 85.842 66.5017C87.1767 66.3734 87.791 65.8876 88.1023 65.3427C88.3157 64.9693 88.7914 64.8396 89.1648 65.053C89.5383 65.2663 89.668 65.7421 89.4546 66.1155C88.8314 67.2061 87.6935 67.8884 85.9911 68.0521C84.3225 68.2125 82.0465 67.8871 78.9707 66.9407C76.0199 66.0328 74.3789 66.2163 73.5174 66.5822C72.669 66.9426 72.508 67.5022 72.4985 67.5978L72.4954 67.628C72.433 68.2464 72.1188 71.3609 73.3146 74.4843C73.802 75.7575 74.5367 77.0212 75.6344 78.118C83.7538 83.1031 91.8932 85.5345 95.3345 86.219C96.8875 85.5416 99.6981 83.122 99.7641 76.9252C98.2467 77.1432 96.1171 77.3093 93.7857 77.233C90.94 77.1397 87.7357 76.6837 84.9632 75.4768C84.5689 75.3051 84.3883 74.8463 84.56 74.4519C84.7317 74.0576 85.1905 73.877 85.5849 74.0487C88.1079 75.147 91.0949 75.5865 93.8367 75.6763C96.398 75.7602 98.6948 75.5375 100.114 75.2939C100.141 75.2658 100.17 75.2389 100.2 75.2135C100.236 75.1658 100.287 75.0965 100.35 75.0037C100.551 74.711 100.842 74.2435 101.168 73.6253C101.821 72.3884 102.592 70.5853 103.06 68.4162C103.987 64.1112 103.728 58.354 98.8832 52.5911C98.6341 52.2948 98.5368 51.8996 98.62 51.5215C98.8399 50.5218 98.977 48.1388 98.076 46.0484C95.8417 48.1454 90.7742 49.8027 82.0494 47.6389C77.2795 46.456 73.6438 46.5519 71.087 47.1635C68.4971 47.7829 67.0935 48.9066 66.6322 49.6917C66.4143 50.0625 65.9371 50.1866 65.5663 49.9687C65.1954 49.7508 65.0714 49.2736 65.2893 48.9027C66.0481 47.6112 67.9152 46.3207 70.7247 45.6487C73.5673 44.9688 77.4598 44.896 82.4243 46.1272C92.1062 48.5283 96.3987 45.9394 97.5433 44.3012ZM100.141 75.2876C100.14 75.2884 100.142 75.2861 100.146 75.2815C100.143 75.2851 100.141 75.287 100.141 75.2876ZM79.0762 29.0959C78.8438 28.734 78.362 28.629 78.0001 28.8614C77.6382 29.0938 77.5332 29.5756 77.7657 29.9375C79.0701 31.9688 79.5209 33.6241 79.4961 34.9547C79.4714 36.276 78.9765 37.356 78.2409 38.2454C76.7358 40.0652 74.2554 41.0415 73 41.3808C72.4316 41.5345 71.4939 41.5235 70.2417 41.4152C69.6649 41.3653 69.0498 41.298 68.4059 41.2276L68.405 41.2275L68.3009 41.2161C67.6224 41.1419 66.9156 41.0655 66.211 41.0062C64.8112 40.8883 63.3694 40.8329 62.1099 41.0111C60.8637 41.1875 59.6533 41.6123 58.8858 42.5846C58.8774 42.5952 58.8693 42.606 58.8615 42.617C56.7238 45.635 56.657 48.606 57.8153 50.9557C58.9514 53.2604 61.2264 54.8848 63.6301 55.357C65.9941 55.8213 68.0284 55.3704 69.8195 54.898C70.0136 54.8469 70.2038 54.7959 70.3904 54.7458C71.9725 54.3216 73.3026 53.9649 74.6728 54.1206C75.2949 54.1913 75.8711 54.5263 76.4917 55.1001C76.979 55.5507 77.4344 56.089 77.9358 56.6815L77.9359 56.6817C78.0875 56.8608 78.2432 57.0449 78.4053 57.233C79.7352 58.7765 81.4442 60.5379 84.1586 60.3539C85.3592 60.2725 86.2307 60.0895 86.9026 59.85C87.5843 59.607 88.0302 59.3162 88.378 59.0634C88.4571 59.0059 88.5253 58.9554 88.5856 58.9107C88.809 58.7453 88.9238 58.6603 89.0814 58.597C89.2349 58.5353 89.478 58.4824 89.991 58.5565C93.6801 59.0894 96.3889 62.5255 95.6483 66.0356C95.4025 67.201 94.9793 68.0964 94.3747 68.806C93.7691 69.5169 92.9449 70.0841 91.8332 70.5372C90.4355 71.1068 89.0032 70.8975 87.7087 70.7084L87.7071 70.7081C87.5523 70.6855 87.3995 70.6632 87.249 70.6426C86.8229 70.5841 86.43 70.8821 86.3715 71.3082C86.3131 71.7343 86.6111 72.1271 87.0372 72.1856C87.1708 72.2039 87.3146 72.2256 87.4673 72.2487L87.4686 72.2489C88.7301 72.4391 90.6008 72.7213 92.4211 71.9795C93.7074 71.4553 94.7576 70.7583 95.5603 69.816C96.3642 68.8724 96.8836 67.7255 97.1723 66.3571C98.1269 61.8327 94.6517 57.6561 90.2137 57.015C89.5173 56.9144 88.9804 56.959 88.5007 57.1518C88.1383 57.2974 87.8304 57.5283 87.5929 57.7064C87.5466 57.7412 87.5029 57.7739 87.4621 57.8036C87.1875 58.0032 86.875 58.2063 86.3796 58.3829C85.8743 58.563 85.1499 58.7256 84.0532 58.7999C82.1729 58.9274 80.9226 57.7684 79.5852 56.2163C79.4476 56.0566 79.3079 55.8913 79.1661 55.7236C78.6534 55.1171 78.1137 54.4786 77.5491 53.9565C76.8141 53.277 75.9399 52.697 74.8487 52.573C73.1641 52.3816 71.5321 52.8228 69.9936 53.2388C69.8017 53.2907 69.6112 53.3422 69.4223 53.392C67.67 53.8542 65.9273 54.2209 63.9303 53.8287C61.973 53.4442 60.1205 52.1093 59.2123 50.2671C58.3284 48.474 58.2987 46.1172 60.1199 43.535C60.5229 43.0358 61.2462 42.7064 62.3282 42.5533C63.4074 42.4005 64.7058 42.4424 66.0803 42.5582C66.763 42.6157 67.4518 42.6901 68.1316 42.7644L68.2416 42.7764L68.2421 42.7765C68.8807 42.8463 69.5123 42.9154 70.1074 42.9669C71.3302 43.0727 72.5342 43.1201 73.4064 42.8844C74.7769 42.514 77.631 41.4266 79.4411 39.238C80.3632 38.1232 81.0211 36.7128 81.0533 34.9837C81.0855 33.2639 80.4974 31.3088 79.0762 29.0959ZM67.3418 84.6323C66.6395 84.6621 65.8199 84.8946 64.8859 85.5014C63.2412 87.0425 62.3558 88.5476 61.9671 89.9498C61.5751 91.3637 61.673 92.7268 62.0769 93.9955C62.8948 96.564 64.9621 98.7167 66.6435 99.9036C66.9948 100.152 67.0786 100.638 66.8306 100.989C66.5826 101.34 66.0966 101.424 65.7453 101.176C63.8962 99.8708 61.548 97.4678 60.5928 94.4681C60.1103 92.9527 59.9824 91.2786 60.4662 89.5337C60.9495 87.7905 62.0282 86.0305 63.8731 84.3162C63.9043 84.2872 63.9379 84.2608 63.9734 84.2372C65.1357 83.4681 66.2434 83.12 67.2757 83.0761C68.3052 83.0324 69.2102 83.2933 69.9679 83.6677C71.2059 84.2795 72.1322 85.2566 72.5478 85.695C72.6252 85.7766 72.6849 85.8396 72.7256 85.878C75.1737 88.1902 79.7708 89.9146 85.1796 89.2535C85.6065 89.2013 85.9949 89.5051 86.047 89.932C86.0992 90.3589 85.7954 90.7473 85.3685 90.7995C79.5631 91.5091 74.4852 89.6823 71.6561 87.0104C71.5664 86.9257 71.4643 86.8194 71.3484 86.699C70.8933 86.2258 70.227 85.533 69.2779 85.064C68.7058 84.7813 68.0601 84.6017 67.3418 84.6323Z" fill="#0EFAFA"/>
</svg>
