<svg width="132" height="32" viewBox="0 0 132 32" fill="none" xmlns="http://www.w3.org/2000/svg">
<g clip-path="url(#clip0_283_6316)">
<path d="M28.679 13.5455H21.8693C21.821 12.982 21.6922 12.4709 21.483 12.0121C21.2817 11.5533 21 11.1589 20.6378 10.8288C20.2836 10.4908 19.853 10.2332 19.3459 10.0561C18.8388 9.87097 18.2633 9.77841 17.6193 9.77841C16.4924 9.77841 15.5386 10.0521 14.7578 10.5994C13.9851 11.1468 13.3975 11.9316 12.995 12.9538C12.6006 13.9761 12.4034 15.2036 12.4034 16.6364C12.4034 18.1496 12.6046 19.4174 13.0071 20.4396C13.4176 21.4538 14.0092 22.2185 14.782 22.7337C15.5547 23.2408 16.4844 23.4943 17.571 23.4943C18.1908 23.4943 18.7462 23.4179 19.2372 23.2649C19.7282 23.1039 20.1548 22.8745 20.517 22.5767C20.8793 22.2789 21.1731 21.9207 21.3984 21.5021C21.6319 21.0755 21.7888 20.5966 21.8693 20.0653L28.679 20.1136C28.5985 21.16 28.3047 22.2266 27.7976 23.3132C27.2905 24.3918 26.5701 25.3899 25.6364 26.3075C24.7107 27.2171 23.5637 27.9496 22.1953 28.505C20.8269 29.0604 19.2372 29.3381 17.4261 29.3381C15.1562 29.3381 13.1198 28.8511 11.3168 27.8771C9.52178 26.9032 8.10109 25.4704 7.05469 23.5788C6.01634 21.6873 5.49716 19.3731 5.49716 16.6364C5.49716 13.8835 6.02841 11.5653 7.09091 9.68182C8.15341 7.79025 9.58617 6.3615 11.3892 5.3956C13.1922 4.42164 15.2045 3.93466 17.4261 3.93466C18.9877 3.93466 20.4245 4.14796 21.7365 4.57457C23.0485 5.00118 24.1996 5.625 25.1896 6.44602C26.1797 7.259 26.9766 8.26113 27.5803 9.45241C28.1839 10.6437 28.5502 12.008 28.679 13.5455ZM38.486 4.27273V29H31.8212V4.27273H38.486ZM41.8817 29V10.4545H48.5465V29H41.8817ZM45.2141 8.52273C44.3126 8.52273 43.5399 8.2249 42.896 7.62926C42.252 7.03362 41.93 6.31723 41.93 5.48011C41.93 4.64299 42.252 3.92661 42.896 3.33096C43.5399 2.73532 44.3126 2.4375 45.2141 2.4375C46.1237 2.4375 46.8964 2.73532 47.5323 3.33096C48.1763 3.92661 48.4982 4.64299 48.4982 5.48011C48.4982 6.31723 48.1763 7.03362 47.5323 7.62926C46.8964 8.2249 46.1237 8.52273 45.2141 8.52273ZM60.8287 29.3381C58.8485 29.3381 57.1421 28.9598 55.7093 28.2031C54.2846 27.4384 53.1859 26.3437 52.4132 24.919C51.6485 23.4863 51.2662 21.7718 51.2662 19.7756C51.2662 17.8598 51.6525 16.1856 52.4252 14.7528C53.198 13.3201 54.2886 12.2053 55.6973 11.4084C57.1059 10.6115 58.7681 10.2131 60.6838 10.2131C62.0843 10.2131 63.3521 10.4304 64.487 10.8651C65.622 11.2997 66.5919 11.9316 67.3968 12.7607C68.2018 13.5817 68.8216 14.5798 69.2562 15.755C69.6909 16.9302 69.9082 18.2543 69.9082 19.7273V21.2727H53.3429V17.6023H63.7747C63.7666 17.071 63.6298 16.6042 63.3642 16.2017C63.1066 15.7912 62.7565 15.4732 62.3137 15.2479C61.8791 15.0144 61.3841 14.8977 60.8287 14.8977C60.2894 14.8977 59.7943 15.0144 59.3436 15.2479C58.8928 15.4732 58.5306 15.7872 58.2569 16.1896C57.9913 16.5921 57.8504 17.063 57.8343 17.6023V21.5625C57.8343 22.1581 57.9591 22.6894 58.2086 23.1562C58.4582 23.6231 58.8163 23.9893 59.2832 24.255C59.7501 24.5206 60.3135 24.6534 60.9735 24.6534C61.4324 24.6534 61.8509 24.589 62.2292 24.4602C62.6156 24.3314 62.9456 24.1463 63.2193 23.9048C63.493 23.6553 63.6942 23.3575 63.823 23.0114H69.9082C69.6989 24.2992 69.2039 25.4181 68.4231 26.3679C67.6423 27.3097 66.608 28.0421 65.3201 28.5653C64.0403 29.0805 62.5431 29.3381 60.8287 29.3381ZM79.2926 18.5682V29H72.6278V10.4545H78.9545V13.9801H79.1477C79.5502 12.8049 80.2585 11.8833 81.2727 11.2152C82.295 10.5471 83.4863 10.2131 84.8466 10.2131C86.1586 10.2131 87.2976 10.5149 88.2635 11.1186C89.2375 11.7143 89.9901 12.5353 90.5213 13.5817C91.0606 14.6281 91.3262 15.8234 91.3182 17.1676V29H84.6534V18.5682C84.6615 17.6506 84.428 16.9302 83.9531 16.407C83.4863 15.8838 82.8343 15.6222 81.9972 15.6222C81.4498 15.6222 80.9709 15.7429 80.5604 15.9844C80.1579 16.2178 79.848 16.5559 79.6307 16.9986C79.4134 17.4332 79.3007 17.9564 79.2926 18.5682ZM105.668 10.4545V15.2841H93.4492V10.4545H105.668ZM95.8157 6.01136H102.48V23.0355C102.48 23.2931 102.525 23.5104 102.613 23.6875C102.702 23.8565 102.839 23.9853 103.024 24.0739C103.209 24.1544 103.446 24.1946 103.736 24.1946C103.937 24.1946 104.171 24.1705 104.436 24.1222C104.71 24.0739 104.911 24.0336 105.04 24.0014L106.006 28.6861C105.708 28.7746 105.282 28.8833 104.726 29.0121C104.179 29.1409 103.527 29.2254 102.77 29.2656C101.241 29.3461 99.957 29.1892 98.9187 28.7947C97.8803 28.3923 97.0996 27.7604 96.5763 26.8991C96.0531 26.0379 95.7996 24.9593 95.8157 23.6634V6.01136ZM117.075 29.3381C115.095 29.3381 113.388 28.9598 111.955 28.2031C110.531 27.4384 109.432 26.3437 108.659 24.919C107.895 23.4863 107.512 21.7718 107.512 19.7756C107.512 17.8598 107.899 16.1856 108.671 14.7528C109.444 13.3201 110.535 12.2053 111.943 11.4084C113.352 10.6115 115.014 10.2131 116.93 10.2131C118.33 10.2131 119.598 10.4304 120.733 10.8651C121.868 11.2997 122.838 11.9316 123.643 12.7607C124.448 13.5817 125.068 14.5798 125.502 15.755C125.937 16.9302 126.154 18.2543 126.154 19.7273V21.2727H109.589V17.6023H120.021C120.013 17.071 119.876 16.6042 119.61 16.2017C119.353 15.7912 119.003 15.4732 118.56 15.2479C118.125 15.0144 117.63 14.8977 117.075 14.8977C116.535 14.8977 116.04 15.0144 115.59 15.2479C115.139 15.4732 114.777 15.7872 114.503 16.1896C114.237 16.5921 114.097 17.063 114.08 17.6023V21.5625C114.08 22.1581 114.205 22.6894 114.455 23.1562C114.704 23.6231 115.062 23.9893 115.529 24.255C115.996 24.5206 116.56 24.6534 117.22 24.6534C117.678 24.6534 118.097 24.589 118.475 24.4602C118.862 24.3314 119.192 24.1463 119.465 23.9048C119.739 23.6553 119.94 23.3575 120.069 23.0114H126.154C125.945 24.2992 125.45 25.4181 124.669 26.3679C123.888 27.3097 122.854 28.0421 121.566 28.5653C120.286 29.0805 118.789 29.3381 117.075 29.3381Z" fill="white"/>
</g>
<defs>
<clipPath id="clip0_283_6316">
<rect width="132" height="32" fill="white"/>
</clipPath>
</defs>
</svg>
