<svg width="106" height="113" viewBox="0 0 106 113" fill="none" xmlns="http://www.w3.org/2000/svg">
<path fill-rule="evenodd" clip-rule="evenodd" d="M23.9866 0.780396C23.2124 0.780396 22.5848 1.40801 22.5848 2.18221V12.618H18.3015C17.8983 12.618 17.5146 12.7916 17.2485 13.0944L12.7315 18.2344C12.5067 18.4902 12.3827 18.8192 12.3827 19.1598V27.4928H8.80029C8.02609 27.4928 7.39847 28.1204 7.39847 28.8946V42.9906H1.40182C0.627614 42.9906 0 43.6182 0 44.3924V74.4536C0 75.2278 0.627614 75.8554 1.40182 75.8554H4.04969V88.7054C4.04969 89.4796 4.6773 90.1072 5.45151 90.1072H11.4482V93.0666C11.4482 93.3907 11.5605 93.7048 11.766 93.9555L14.959 97.8494C15.2253 98.1741 15.6231 98.3624 16.043 98.3624H19.3139V104.359C19.3139 105.133 19.9415 105.761 20.7157 105.761H28.1531V108.876C28.1531 109.271 28.3197 109.648 28.612 109.913L31.6103 112.639C31.8684 112.874 32.2046 113.004 32.5533 113.004H43.6121C43.9838 113.004 44.3404 112.856 44.6033 112.593L47.7963 109.4C48.0592 109.137 48.2069 108.78 48.2069 108.409V102.35C48.9117 101.874 49.3751 101.068 49.3751 100.154C49.3751 98.6912 48.1896 97.5057 46.7272 97.5057C45.2648 97.5057 44.0793 98.6912 44.0793 100.154C44.0793 101.134 44.6118 101.989 45.4033 102.447V107.828L43.0314 110.2H33.0952L30.9568 108.256V105.761H36.0695C36.5374 106.509 37.3687 107.007 38.3163 107.007C39.7787 107.007 40.9642 105.821 40.9642 104.359C40.9642 102.897 39.7787 101.711 38.3163 101.711C37.3687 101.711 36.5374 102.209 36.0695 102.957H29.555H22.1175V98.3624H36.9924C37.3534 98.3624 37.7005 98.2231 37.9613 97.9736L43.335 92.8336C43.6114 92.5691 43.7678 92.2031 43.7678 91.8206V80.1388C43.7678 79.7471 43.604 79.3733 43.316 79.1079L39.3442 75.4476C39.0853 75.2091 38.7462 75.0766 38.3942 75.0766H22.6627C21.8885 75.0766 21.2609 75.7043 21.2609 76.4785V85.5124C21.2609 85.8621 21.3916 86.1993 21.6275 86.4576L24.8984 90.04C25.164 90.3309 25.5397 90.4966 25.9336 90.4966H34.9675C35.7417 90.4966 36.3693 89.869 36.3693 89.0948V82.2415C36.3693 81.4673 35.7417 80.8397 34.9675 80.8397H31.7751C31.3294 80.0055 30.45 79.4378 29.4381 79.4378C27.9758 79.4378 26.7903 80.6233 26.7903 82.0857C26.7903 83.5481 27.9758 84.7336 29.4381 84.7336C30.3183 84.7336 31.0982 84.3041 31.5797 83.6433H33.5657V87.693H26.5519L24.0645 84.9687V77.8803H37.8468L40.9642 80.7532V91.2216L36.4299 95.5587H20.7157H16.7064L14.2518 92.5654V90.1072H16.043C16.8172 90.1072 17.4448 89.4796 17.4448 88.7054V81.5406C17.4448 80.7664 16.8172 80.1388 16.043 80.1388H13.1966C12.7388 79.3473 11.8831 78.8148 10.903 78.8148C9.44063 78.8148 8.25514 80.0003 8.25514 81.4627C8.25514 82.9251 9.44063 84.1106 10.903 84.1106C11.8173 84.1106 12.6234 83.6472 13.0992 82.9424H14.6412V87.3036H12.85H6.85332V75.8554H8.48877C9.26298 75.8554 9.89059 75.2278 9.89059 74.4536V65.591C10.5954 65.1152 11.0588 64.3092 11.0588 63.3948C11.0588 61.9325 9.87328 60.747 8.4109 60.747C6.94851 60.747 5.76302 61.9325 5.76302 63.3948C5.76302 64.3749 6.29551 65.2306 7.08696 65.6885V73.0518H5.45151H2.80363V45.7943H7.39847V55.2176C7.39847 55.9918 8.02609 56.6194 8.80029 56.6194H25.7C26.0717 56.6194 26.4283 56.4717 26.6912 56.2088L32.086 50.814V61.37C32.086 62.1442 32.7136 62.7718 33.4878 62.7718H38.3956C38.8523 63.3415 39.5541 63.7064 40.3411 63.7064C41.7175 63.7064 42.8333 62.5906 42.8333 61.2142C42.8333 59.8379 41.7175 58.7221 40.3411 58.7221C39.4187 58.7221 38.6133 59.2233 38.1824 59.9682H34.8896V47.4297C34.8896 46.8627 34.5481 46.3516 34.0243 46.1346C33.5005 45.9176 32.8975 46.0376 32.4966 46.4385L25.1193 53.8158H10.2021V44.3924V30.2964H13.7845H22.2733V38.0657C21.7937 38.52 21.4945 39.1628 21.4945 39.8755C21.4945 41.2518 22.6103 42.3676 23.9866 42.3676C25.363 42.3676 26.4787 41.2518 26.4787 39.8755C26.4787 38.8901 25.9069 38.0383 25.0769 37.6339V28.8946V22.3359C25.9069 21.9315 26.4787 21.0797 26.4787 20.0943C26.4787 18.7179 25.363 17.6022 23.9866 17.6022C22.6103 17.6022 21.4945 18.7179 21.4945 20.0943C21.4945 20.807 21.7937 21.4498 22.2733 21.904V27.4928H15.1863V19.6882L18.9358 15.4216H23.9866C24.7608 15.4216 25.3884 14.794 25.3884 14.0198V3.58403H45.4033V12.0638C44.7015 12.5047 44.2351 13.2856 44.2351 14.1755C44.2351 15.5519 45.3508 16.6676 46.7272 16.6676C48.1036 16.6676 49.2193 15.5519 49.2193 14.1755C49.2193 13.3532 48.8211 12.6239 48.2069 12.17V2.18221C48.2069 1.40801 47.5793 0.780396 46.8051 0.780396H23.9866ZM32.5892 9.81432H36.6808V21.574C36.6808 22.3482 37.3085 22.9758 38.0827 22.9758H42.989V25.7016H32.6312V16.8428C33.0651 16.3943 33.3321 15.7834 33.3321 15.1101C33.3321 13.7337 32.2163 12.618 30.8399 12.618C29.4636 12.618 28.3478 13.7337 28.3478 15.1101C28.3478 16.126 28.9557 16.9999 29.8275 17.388V27.1034C29.8275 27.8776 30.4551 28.5052 31.2293 28.5052H44.3908C45.165 28.5052 45.7927 27.8776 45.7927 27.1034V21.574C45.7927 20.7998 45.165 20.1722 44.3908 20.1722H39.4845V8.4125C39.4845 7.6383 38.8569 7.01069 38.0827 7.01069H32.5892C32.1406 6.35253 31.385 5.92039 30.5284 5.92039C29.1521 5.92039 28.0363 7.03615 28.0363 8.4125C28.0363 9.78886 29.1521 10.9046 30.5284 10.9046C31.385 10.9046 32.1406 10.4725 32.5892 9.81432ZM36.9924 34.2682C36.626 34.2682 36.2741 34.4117 36.0122 34.6678L22.2469 48.1306H17.3669V39.8066C18.0687 39.3658 18.5351 38.5848 18.5351 37.6949C18.5351 36.3185 17.4194 35.2028 16.043 35.2028C14.6666 35.2028 13.5509 36.3185 13.5509 37.6949C13.5509 38.5172 13.9492 39.2465 14.5633 39.7004V49.5324C14.5633 50.3066 15.1909 50.9343 15.9651 50.9343H22.8184C23.1848 50.9343 23.5367 50.7908 23.7986 50.5346L37.5639 37.0719H45.2475V51.2458H40.4969V44.7399C41.1551 44.2913 41.5872 43.5357 41.5872 42.6791C41.5872 41.3028 40.4714 40.187 39.0951 40.187C37.7187 40.187 36.603 41.3028 36.603 42.6791C36.603 43.5357 37.0351 44.2913 37.6933 44.7399V52.6476C37.6933 53.4218 38.3209 54.0494 39.0951 54.0494H46.6493C47.4235 54.0494 48.0511 53.4218 48.0511 52.6476V35.67C48.0511 34.8958 47.4235 34.2682 46.6493 34.2682H36.9924ZM16.5882 60.9027C15.814 60.9027 15.1863 61.5303 15.1863 62.3045V69.6251C15.1863 70.3993 15.814 71.0269 16.5882 71.0269H39.5252C39.9955 72.0388 41.021 72.7403 42.2102 72.7403C43.8447 72.7403 45.1696 71.4153 45.1696 69.7809C45.1696 68.1465 43.8447 66.8215 42.2102 66.8215C41.1473 66.8215 40.2153 67.3819 39.6934 68.2233H17.99V63.7064H22.7454C23.2484 64.4577 24.1049 64.9524 25.0769 64.9524C26.6253 64.9524 27.8806 63.6972 27.8806 62.1488C27.8806 60.6004 26.6253 59.3451 25.0769 59.3451C23.9761 59.3451 23.0235 59.9796 22.5647 60.9027H16.5882Z" fill="black"/>
<path fill-rule="evenodd" clip-rule="evenodd" d="M65.2498 0.430186C68.7436 1.43939 71.2143 4.03024 72.58 6.3218C78.4506 5.90263 82.3477 7.70463 84.7699 10.368C87.0412 12.8655 87.8875 15.981 87.9922 18.3159C93.7784 23.0486 95.1149 29.4296 95.0446 32.7565C97.9672 35.1798 99.3028 38.2488 99.8597 40.6557C100.154 41.9277 100.238 43.0436 100.217 43.8269C100.209 44.0896 100.189 44.3537 100.149 44.5901C101.388 47.0804 101.387 49.8604 101.166 51.4414C106.243 57.7592 106.532 64.1537 105.5 68.9433C104.975 71.3787 104.111 73.3965 103.376 74.7903C103.008 75.4876 102.668 76.0379 102.409 76.4148C102.358 76.4895 102.308 76.5601 102.261 76.6254C102.282 83.8516 98.9629 87.3735 96.3364 88.5081C96.2214 93.8225 94.0269 97.5758 91.2363 100.084C88.5659 102.483 85.382 103.718 83.0228 104.167C80.8374 107.829 78.1946 110.176 75.2921 111.476C72.2623 112.833 69.0587 113.002 65.9889 112.478C59.8973 111.437 54.1493 107.64 50.7148 104.5C50.4566 104.264 50.3096 103.93 50.3096 103.58V6.23188C50.3096 5.87766 50.4603 5.54019 50.7241 5.30382C56.3315 0.279842 61.2725 -0.718692 65.2498 0.430186ZM97.5468 44.3026C97.5825 44.1697 97.6401 44.0429 97.7178 43.9278C97.7209 43.8787 97.7236 43.8223 97.7253 43.7581C97.7409 43.1955 97.6802 42.2915 97.4317 41.2174C96.9355 39.0728 95.72 36.3656 93.0162 34.3289C92.6711 34.069 92.4853 33.6489 92.5251 33.2188C92.6968 31.3651 92.2145 27.3359 89.5126 23.5463C89.475 23.5317 89.4381 23.514 89.4022 23.493C87.4194 22.3385 84.2147 21.0259 81.0706 20.8168C77.9851 20.6117 75.082 21.4632 73.3122 24.4398C73.2576 24.6986 73.2243 25.1346 73.2156 25.7443C73.2063 26.3911 73.2242 27.1533 73.2434 27.9656L73.2446 28.0196L73.2449 28.0303C73.283 29.6517 73.3266 31.5054 73.1174 32.7608C72.9767 33.6051 72.4496 34.2741 71.7657 34.7656C71.0847 35.2549 70.2061 35.6023 69.2371 35.8171C67.2975 36.2469 64.8471 36.1786 62.4732 35.4828C58.4868 34.3144 56.9716 30.8781 56.7058 29.254C56.6364 28.8295 56.9242 28.4291 57.3486 28.3596C57.7731 28.2902 58.1735 28.578 58.243 29.0024C58.4445 30.2338 59.6706 33.0382 62.9113 33.9881C65.0544 34.6163 67.2378 34.6648 68.9001 34.2964C69.7321 34.112 70.3964 33.8315 70.8568 33.5007C71.3143 33.172 71.5271 32.8286 71.581 32.5047C71.7608 31.4265 71.7271 29.7421 71.6875 28.0562L71.6858 27.9848C71.667 27.1868 71.6484 26.3988 71.6581 25.722C71.6678 25.0488 71.7049 24.3949 71.8325 23.9355C71.8501 23.8721 71.8757 23.8112 71.9086 23.7543C74.0694 20.0158 77.6927 19.0313 81.1739 19.2627C83.12 19.3921 85.0609 19.8994 86.7637 20.5384C86.5179 20.3266 86.2623 20.118 85.9966 19.9134C85.686 19.6743 85.5061 19.3029 85.5108 18.911C85.5339 17.0077 84.8896 14.2037 82.9262 12.0447C81.016 9.94431 77.7012 8.2834 72.0104 8.87312C71.4976 8.92625 71.0051 8.65813 70.7713 8.19864C69.7311 6.15359 67.5755 3.69597 64.5582 2.82442C61.7166 2.00357 57.7766 2.49861 52.8017 6.79518V12.9597C54.3062 11.5396 56.883 10.205 60.1595 11.4205C62.8187 12.407 63.8926 14.0827 64.1882 15.6789C64.4701 17.2012 64.0229 18.5302 63.8888 18.888C63.8381 19.0231 63.7507 19.155 63.706 19.2225L63.7057 19.223C63.6535 19.3018 63.5877 19.3961 63.5192 19.4943L63.4918 19.5336C63.3303 19.7653 63.1297 20.0554 62.9187 20.4007C62.4946 21.0944 62.0438 21.9863 61.8164 22.9918C61.5911 23.9885 61.5864 25.0894 62.0429 26.2329C62.5005 27.3791 63.4483 28.6349 65.242 29.8923C65.5942 30.1392 65.6796 30.6249 65.4327 30.9771C65.1858 31.3293 64.7001 31.4146 64.348 31.1677C62.3645 29.7773 61.1902 28.2976 60.5964 26.8105C60.0016 25.3207 60.0163 23.8906 60.2972 22.6483C60.5761 21.4148 61.1182 20.3597 61.5897 19.5883C61.8265 19.201 62.0494 18.879 62.214 18.6429L62.2409 18.6044C62.3122 18.5021 62.3661 18.4248 62.4072 18.3628C62.4253 18.3355 62.4365 18.3174 62.4429 18.3071C62.5547 17.9978 62.8535 17.0258 62.6566 15.9625C62.4655 14.9303 61.7871 13.6856 59.6178 12.8808C56.2526 11.6324 53.8081 13.8322 52.9948 15.1334C52.9423 15.2174 52.8765 15.2879 52.8017 15.3439V59.5279C53.5856 60.1567 54.5231 60.7804 55.5751 61.3272C57.785 62.4758 60.4522 63.261 63.218 63.0857C65.9651 62.9115 68.8596 61.788 71.5594 59.0336C71.8605 58.7265 72.3536 58.7215 72.6607 59.0226C72.9679 59.3237 72.9728 59.8168 72.6718 60.1239C69.7065 63.1491 66.4524 64.4414 63.3165 64.6401C61.4354 64.7594 59.6151 64.4844 57.9414 63.9742C59.9238 67.0513 61.424 72.1585 59.0645 78.7652C57.1275 84.1889 56.4197 87.5435 56.3547 90.0978C56.2905 92.6189 56.8481 94.4091 57.584 96.7716L57.5949 96.8068C57.7228 97.2174 57.4936 97.654 57.083 97.7819C56.6723 97.9098 56.2357 97.6806 56.1078 97.27L56.0756 97.1664C55.3508 94.8401 54.7268 92.8375 54.7976 90.0582C54.8688 87.2583 55.6408 83.7206 57.5977 78.2413C60.5635 69.9371 56.8988 64.4002 54.7869 62.6728C54.076 62.2995 53.4109 61.8927 52.8017 61.4699V103.024C56.067 105.899 61.1815 109.128 66.4086 110.021C69.109 110.482 71.7921 110.313 74.2733 109.202C76.6134 108.153 78.8719 106.223 80.824 102.988C76.8093 101.35 70.1623 97.623 66.0264 91.7224C65.7795 91.3702 65.8649 90.8845 66.2171 90.6377C66.5693 90.3908 67.0549 90.4762 67.3018 90.8284C71.4485 96.7443 78.3547 100.404 82.0617 101.802C82.0627 101.802 82.0636 101.802 82.0646 101.801C84.054 101.519 87.0876 100.461 89.5706 98.2299C92.0118 96.0361 93.9598 92.6791 93.8441 87.6437C93.8429 87.5912 93.845 87.5393 93.8502 87.4882C89.7872 86.5163 82.249 84.0224 74.7444 79.4C74.6949 79.3695 74.6489 79.3335 74.6074 79.2927C73.4022 78.1098 72.5762 76.7648 72.0142 75.4219C70.2783 75.0547 66.9306 75.324 65.106 79.0774C64.918 79.4642 64.452 79.6254 64.0651 79.4373C63.6783 79.2493 63.5172 78.7833 63.7052 78.3964C65.6658 74.3632 69.126 73.5893 71.4456 73.7737C70.6139 70.7741 70.8879 68.0706 70.9474 67.4833L70.9513 67.4449C71.0196 66.7616 71.5595 65.7248 72.9112 65.1507C74.2498 64.582 76.3079 64.493 79.4316 65.4541C82.4302 66.3768 84.4764 66.6354 85.8451 66.5038C87.1799 66.3755 87.7941 65.8896 88.1055 65.3448C88.3189 64.9713 88.7946 64.8416 89.168 65.055C89.5415 65.2684 89.6712 65.7441 89.4578 66.1176C88.8346 67.2082 87.6966 67.8905 85.9941 68.0542C84.3256 68.2147 82.0494 67.8892 78.9735 66.9428C76.0227 66.0348 74.3816 66.2183 73.5201 66.5843C72.6717 66.9447 72.5107 67.5044 72.5011 67.5999L72.4981 67.6302C72.4357 68.2485 72.1215 71.3632 73.3173 74.4867C73.8047 75.7599 74.5394 77.0236 75.6371 78.1205C83.7568 83.1057 91.8965 85.5372 95.3379 86.2217C96.8909 85.5443 99.7016 83.1246 99.7676 76.9277C98.2502 77.1456 96.1205 77.3117 93.789 77.2354C90.9432 77.1422 87.7389 76.6861 84.9663 75.4792C84.5719 75.3075 84.3914 74.8486 84.563 74.4543C84.7347 74.0599 85.1936 73.8794 85.5879 74.051C88.1111 75.1494 91.0981 75.5888 93.84 75.6786C96.4014 75.7625 98.6982 75.5399 100.117 75.2963C100.145 75.2681 100.173 75.2413 100.203 75.2158C100.24 75.1682 100.29 75.0989 100.354 75.0061C100.554 74.7134 100.846 74.2458 101.172 73.6276C101.824 72.3907 102.596 70.5875 103.063 68.4183C103.991 64.1132 103.732 58.3558 98.8867 52.5928C98.6375 52.2965 98.5403 51.9012 98.6234 51.5232C98.8434 50.5234 98.9805 48.1403 98.0794 46.0499C95.8451 48.147 90.7775 49.8043 82.0524 47.6404C77.2823 46.4574 73.6465 46.5534 71.0896 47.165C68.4996 47.7844 67.0959 48.9081 66.6347 49.6933C66.4168 50.0641 65.9395 50.1881 65.5687 49.9703C65.1978 49.7524 65.0738 49.2751 65.2917 48.9043C66.0505 47.6127 67.9177 46.3221 70.7273 45.6501C73.57 44.9702 77.4626 44.8974 82.4273 46.1286C92.1094 48.5298 96.4021 45.9408 97.5468 44.3026ZM100.144 75.2899C100.144 75.2907 100.145 75.2885 100.15 75.2839C100.147 75.2874 100.145 75.2894 100.144 75.2899ZM79.0791 29.0968C78.8466 28.7349 78.3648 28.6299 78.0029 28.8623C77.641 29.0947 77.5361 29.5765 77.7685 29.9384C79.073 31.9698 79.5238 33.6251 79.499 34.9558C79.4743 36.2771 78.9793 37.3572 78.2438 38.2466C76.7386 40.0664 74.2581 41.0428 73.0027 41.3821C72.4342 41.5358 71.4965 41.5248 70.2443 41.4165C69.6675 41.3666 69.0524 41.2993 68.4084 41.2289L68.4076 41.2288L68.3034 41.2174C67.6249 41.1432 66.918 41.0668 66.2135 41.0074C64.8136 40.8896 63.3717 40.8341 62.1122 41.0124C60.866 41.1888 59.6556 41.6136 58.888 42.5859C58.8796 42.5965 58.8715 42.6073 58.8637 42.6183C56.7259 45.6364 56.6591 48.6075 57.8175 50.9573C58.9536 53.262 61.2287 54.8865 63.6325 55.3587C65.9966 55.8231 68.0309 55.3722 69.8221 54.8998C70.0162 54.8486 70.2063 54.7976 70.393 54.7475C71.9751 54.3233 73.3053 53.9666 74.6755 54.1223C75.2976 54.193 75.8738 54.528 76.4945 55.1019C76.9818 55.5525 77.4372 56.0907 77.9386 56.6833L77.9387 56.6835C78.0903 56.8626 78.246 57.0467 78.4081 57.2348C79.7381 58.7783 81.4472 60.5398 84.1616 60.3558C85.3623 60.2744 86.2337 60.0914 86.9057 59.8519C87.5874 59.6089 88.0334 59.3181 88.3812 59.0652C88.4602 59.0077 88.5284 58.9572 88.5887 58.9126C88.8121 58.7472 88.927 58.6622 89.0846 58.5988C89.2381 58.5372 89.4812 58.4842 89.9942 58.5583C93.6834 59.0913 96.3923 62.5274 95.6517 66.0377C95.4059 67.2031 94.9826 68.0985 94.3781 68.8081C93.7724 69.5191 92.9482 70.0863 91.8365 70.5394C90.4387 71.109 89.0064 70.8997 87.7119 70.7106L87.7102 70.7104C87.5554 70.6877 87.4026 70.6654 87.2521 70.6448C86.826 70.5863 86.4331 70.8843 86.3746 71.3104C86.3161 71.7365 86.6142 72.1294 87.0403 72.1879C87.1739 72.2062 87.3177 72.2279 87.4704 72.2509L87.4717 72.2511C88.7332 72.4414 90.6041 72.7236 92.4243 71.9818C93.7107 71.4575 94.7609 70.7606 95.5637 69.8182C96.3676 68.8746 96.887 67.7276 97.1758 66.3592C98.1303 61.8347 94.655 57.6579 90.2169 57.0168C89.5205 56.9162 88.9836 56.9608 88.5039 57.1536C88.1415 57.2992 87.8336 57.5301 87.596 57.7082C87.5497 57.743 87.5061 57.7757 87.4652 57.8054C87.1906 58.0051 86.8781 58.2081 86.3827 58.3848C85.8774 58.5649 85.153 58.7274 84.0562 58.8018C82.1758 58.9292 80.9255 57.7702 79.5881 56.2181C79.4505 56.0584 79.3108 55.8931 79.169 55.7253C78.6563 55.1188 78.1166 54.4803 77.5519 53.9582C76.8169 53.2787 75.9427 52.6987 74.8514 52.5747C73.1668 52.3832 71.5347 52.8245 69.9961 53.2405C69.8043 53.2924 69.6138 53.3439 69.4249 53.3937C67.6725 53.8558 65.9298 54.2226 63.9327 53.8303C61.9753 53.4459 60.1227 52.111 59.2146 50.2686C58.3306 48.4756 58.3009 46.1186 60.1222 43.5364C60.5252 43.0372 61.2485 42.7077 62.3305 42.5546C63.4098 42.4019 64.7082 42.4438 66.0828 42.5595C66.7655 42.617 67.4543 42.6914 68.1342 42.7657L68.2441 42.7778L68.2446 42.7778C68.8833 42.8477 69.5149 42.9167 70.11 42.9682C71.3328 43.074 72.5368 43.1215 73.4091 42.8858C74.7797 42.5153 77.6338 41.4279 79.444 39.2393C80.3661 38.1243 81.024 36.714 81.0563 34.9848C81.0884 33.265 80.5003 31.3098 79.0791 29.0968ZM67.3443 84.6349C66.6419 84.6647 65.8223 84.8973 64.8883 85.5041C63.2436 87.0452 62.3582 88.5503 61.9694 89.9526C61.5774 91.3666 61.6753 92.7297 62.0793 93.9985C62.8971 96.567 64.9645 98.7198 66.6459 99.9067C66.9973 100.155 67.0811 100.641 66.8331 100.992C66.585 101.343 66.0991 101.427 65.7477 101.179C63.8986 99.8739 61.5503 97.4708 60.5951 94.471C60.1126 92.9557 59.9846 91.2815 60.4684 89.5365C60.9517 87.7933 62.0305 86.0332 63.8755 84.3188C63.9067 84.2898 63.9403 84.2634 63.9758 84.2399C65.1381 83.4707 66.2458 83.1226 67.2782 83.0787C68.3077 83.035 69.2128 83.2959 69.9704 83.6703C71.2085 84.2821 72.1349 85.2593 72.5504 85.6977C72.6278 85.7793 72.6875 85.8423 72.7282 85.8807C75.1765 88.193 79.7737 89.9174 85.1826 89.2563C85.6095 89.2041 85.9979 89.5079 86.0501 89.9348C86.1023 90.3618 85.7985 90.7502 85.3716 90.8024C79.566 91.5119 74.4879 89.6851 71.6587 87.0131C71.5691 86.9284 71.4669 86.8221 71.351 86.7017C70.8959 86.2285 70.2296 85.5357 69.2804 85.0667C68.7083 84.784 68.0626 84.6044 67.3443 84.6349Z" fill="#00DDE0"/>
</svg>
