<svg width="229" height="32" viewBox="0 0 229 32" fill="none" xmlns="http://www.w3.org/2000/svg">
<g clip-path="url(#clip0_283_6318)">
<path d="M5.59375 29V4.27273H16.267C18.1023 4.27273 19.7081 4.63494 21.0845 5.35938C22.4609 6.08381 23.5315 7.10204 24.2962 8.41406C25.0608 9.72609 25.4432 11.2595 25.4432 13.0142C25.4432 14.785 25.0488 16.3184 24.2599 17.6143C23.4792 18.9103 22.3804 19.9084 20.9638 20.6087C19.5552 21.3089 17.9091 21.6591 16.0256 21.6591H9.65057V16.4432H14.6733C15.4621 16.4432 16.1342 16.3063 16.6896 16.0327C17.2531 15.7509 17.6837 15.3525 17.9815 14.8374C18.2874 14.3222 18.4403 13.7145 18.4403 13.0142C18.4403 12.3059 18.2874 11.7022 17.9815 11.2031C17.6837 10.696 17.2531 10.3097 16.6896 10.044C16.1342 9.77036 15.4621 9.63352 14.6733 9.63352H12.3068V29H5.59375ZM28.0028 29V10.4545H34.4744V13.9801H34.6676C35.0057 12.6761 35.541 11.7223 36.2734 11.1186C37.014 10.5149 37.8793 10.2131 38.8693 10.2131C39.1591 10.2131 39.4448 10.2372 39.7266 10.2855C40.0163 10.3258 40.294 10.3861 40.5597 10.4666V16.1534C40.2296 16.0407 39.8232 15.9562 39.3402 15.8999C38.8572 15.8435 38.4427 15.8153 38.0966 15.8153C37.4446 15.8153 36.857 15.9643 36.3338 16.2621C35.8187 16.5518 35.4122 16.9624 35.1143 17.4936C34.8165 18.0168 34.6676 18.6326 34.6676 19.3409V29H28.0028ZM50.6172 29.3381C48.6049 29.3381 46.8823 28.9396 45.4496 28.1428C44.0168 27.3378 42.9181 26.219 42.1534 24.7862C41.3887 23.3454 41.0064 21.6752 41.0064 19.7756C41.0064 17.8759 41.3887 16.2098 42.1534 14.777C42.9181 13.3362 44.0168 12.2173 45.4496 11.4205C46.8823 10.6155 48.6049 10.2131 50.6172 10.2131C52.6295 10.2131 54.352 10.6155 55.7848 11.4205C57.2176 12.2173 58.3163 13.3362 59.081 14.777C59.8456 16.2098 60.228 17.8759 60.228 19.7756C60.228 21.6752 59.8456 23.3454 59.081 24.7862C58.3163 26.219 57.2176 27.3378 55.7848 28.1428C54.352 28.9396 52.6295 29.3381 50.6172 29.3381ZM50.6655 24.4119C51.2289 24.4119 51.7159 24.2228 52.1264 23.8445C52.5369 23.4661 52.8549 22.9268 53.0803 22.2266C53.3056 21.5263 53.4183 20.6932 53.4183 19.7273C53.4183 18.7533 53.3056 17.9202 53.0803 17.228C52.8549 16.5277 52.5369 15.9884 52.1264 15.6101C51.7159 15.2318 51.2289 15.0426 50.6655 15.0426C50.0698 15.0426 49.5587 15.2318 49.1321 15.6101C48.7055 15.9884 48.3795 16.5277 48.1541 17.228C47.9287 17.9202 47.8161 18.7533 47.8161 19.7273C47.8161 20.6932 47.9287 21.5263 48.1541 22.2266C48.3795 22.9268 48.7055 23.4661 49.1321 23.8445C49.5587 24.2228 50.0698 24.4119 50.6655 24.4119ZM62.9325 35.9545V10.4545H69.549V13.6903H69.6939C69.9354 13.0625 70.2895 12.487 70.7564 11.9638C71.2232 11.4325 71.8028 11.0099 72.495 10.696C73.1873 10.3741 73.9922 10.2131 74.9098 10.2131C76.1333 10.2131 77.2964 10.5391 78.3991 11.1911C79.5099 11.843 80.4115 12.8693 81.1037 14.2699C81.804 15.6705 82.1541 17.4896 82.1541 19.7273C82.1541 21.8684 81.8201 23.6432 81.152 25.0518C80.492 26.4605 79.6065 27.5109 78.4957 28.2031C77.393 28.8954 76.1816 29.2415 74.8615 29.2415C73.9922 29.2415 73.2154 29.1006 72.5312 28.8189C71.8551 28.5291 71.2756 28.1387 70.7926 27.6477C70.3177 27.1487 69.9515 26.5852 69.6939 25.9574H69.5973V35.9545H62.9325ZM69.4524 19.7273C69.4524 20.6288 69.5691 21.4096 69.8026 22.0696C70.044 22.7216 70.3821 23.2287 70.8168 23.5909C71.2595 23.9451 71.7867 24.1222 72.3984 24.1222C73.0102 24.1222 73.5294 23.9491 73.956 23.603C74.3906 23.2488 74.7206 22.7457 74.946 22.0938C75.1795 21.4337 75.2962 20.6449 75.2962 19.7273C75.2962 18.8097 75.1795 18.0249 74.946 17.3729C74.7206 16.7128 74.3906 16.2098 73.956 15.8636C73.5294 15.5095 73.0102 15.3324 72.3984 15.3324C71.7867 15.3324 71.2595 15.5095 70.8168 15.8636C70.3821 16.2098 70.044 16.7128 69.8026 17.3729C69.5691 18.0249 69.4524 18.8097 69.4524 19.7273ZM84.9462 29V10.4545H91.611V29H84.9462ZM88.2786 8.52273C87.3771 8.52273 86.6043 8.2249 85.9604 7.62926C85.3165 7.03362 84.9945 6.31723 84.9945 5.48011C84.9945 4.64299 85.3165 3.92661 85.9604 3.33096C86.6043 2.73532 87.3771 2.4375 88.2786 2.4375C89.1882 2.4375 89.9609 2.73532 90.5968 3.33096C91.2407 3.92661 91.5627 4.64299 91.5627 5.48011C91.5627 6.31723 91.2407 7.03362 90.5968 7.62926C89.9609 8.2249 89.1882 8.52273 88.2786 8.52273ZM103.893 29.3381C101.913 29.3381 100.207 28.9598 98.7738 28.2031C97.3491 27.4384 96.2504 26.3437 95.4776 24.919C94.7129 23.4863 94.3306 21.7718 94.3306 19.7756C94.3306 17.8598 94.717 16.1856 95.4897 14.7528C96.2624 13.3201 97.3531 12.2053 98.7617 11.4084C100.17 10.6115 101.833 10.2131 103.748 10.2131C105.149 10.2131 106.417 10.4304 107.551 10.8651C108.686 11.2997 109.656 11.9316 110.461 12.7607C111.266 13.5817 111.886 14.5798 112.321 15.755C112.755 16.9302 112.973 18.2543 112.973 19.7273V21.2727H96.4073V17.6023H106.839C106.831 17.071 106.694 16.6042 106.429 16.2017C106.171 15.7912 105.821 15.4732 105.378 15.2479C104.944 15.0144 104.449 14.8977 103.893 14.8977C103.354 14.8977 102.859 15.0144 102.408 15.2479C101.957 15.4732 101.595 15.7872 101.321 16.1896C101.056 16.5921 100.915 17.063 100.899 17.6023V21.5625C100.899 22.1581 101.024 22.6894 101.273 23.1562C101.523 23.6231 101.881 23.9893 102.348 24.255C102.815 24.5206 103.378 24.6534 104.038 24.6534C104.497 24.6534 104.915 24.589 105.294 24.4602C105.68 24.3314 106.01 24.1463 106.284 23.9048C106.557 23.6553 106.759 23.3575 106.887 23.0114H112.973C112.763 24.2992 112.268 25.4181 111.488 26.3679C110.707 27.3097 109.672 28.0421 108.385 28.5653C107.105 29.0805 105.608 29.3381 103.893 29.3381ZM126.752 10.4545V15.2841H114.533V10.4545H126.752ZM116.9 6.01136H123.564V23.0355C123.564 23.2931 123.609 23.5104 123.697 23.6875C123.786 23.8565 123.923 23.9853 124.108 24.0739C124.293 24.1544 124.53 24.1946 124.82 24.1946C125.021 24.1946 125.255 24.1705 125.52 24.1222C125.794 24.0739 125.995 24.0336 126.124 24.0014L127.09 28.6861C126.792 28.7746 126.366 28.8833 125.81 29.0121C125.263 29.1409 124.611 29.2254 123.854 29.2656C122.325 29.3461 121.041 29.1892 120.003 28.7947C118.964 28.3923 118.184 27.7604 117.66 26.8991C117.137 26.0379 116.884 24.9593 116.9 23.6634V6.01136ZM134.639 29.2898C133.456 29.2898 132.41 29.0966 131.5 28.7102C130.598 28.3158 129.89 27.7202 129.375 26.9233C128.86 26.1264 128.602 25.1122 128.602 23.8807C128.602 22.8665 128.775 22.0012 129.121 21.2848C129.468 20.5604 129.951 19.9688 130.57 19.5099C131.19 19.0511 131.911 18.701 132.732 18.4595C133.561 18.218 134.454 18.0611 135.412 17.9886C136.45 17.9081 137.283 17.8116 137.911 17.6989C138.547 17.5781 139.006 17.4131 139.288 17.2038C139.569 16.9865 139.71 16.7008 139.71 16.3466V16.2983C139.71 15.8153 139.525 15.4451 139.155 15.1875C138.785 14.9299 138.31 14.8011 137.73 14.8011C137.094 14.8011 136.575 14.942 136.173 15.2237C135.778 15.4974 135.541 15.92 135.46 16.4915H129.327C129.407 15.3646 129.765 14.3262 130.401 13.3764C131.045 12.4186 131.983 11.6539 133.214 11.0824C134.446 10.5028 135.983 10.2131 137.827 10.2131C139.155 10.2131 140.346 10.37 141.401 10.6839C142.455 10.9898 143.353 11.4205 144.093 11.9759C144.834 12.5232 145.397 13.1671 145.783 13.9077C146.178 14.6402 146.375 15.437 146.375 16.2983V29H140.145V26.392H140C139.63 27.0843 139.179 27.6437 138.648 28.0703C138.125 28.4969 137.525 28.8068 136.849 29C136.181 29.1932 135.444 29.2898 134.639 29.2898ZM136.812 25.0881C137.32 25.0881 137.795 24.9834 138.237 24.7741C138.688 24.5649 139.054 24.263 139.336 23.8686C139.618 23.4742 139.759 22.9953 139.759 22.4318V20.8864C139.581 20.9588 139.392 21.0272 139.191 21.0916C138.998 21.156 138.789 21.2164 138.563 21.2727C138.346 21.3291 138.112 21.3814 137.863 21.4297C137.621 21.478 137.368 21.5223 137.102 21.5625C136.587 21.643 136.165 21.7758 135.835 21.9609C135.513 22.138 135.271 22.3594 135.11 22.625C134.957 22.8826 134.881 23.1723 134.881 23.4943C134.881 24.0095 135.062 24.4039 135.424 24.6776C135.786 24.9512 136.249 25.0881 136.812 25.0881ZM149.559 29V10.4545H156.031V13.9801H156.224C156.562 12.6761 157.098 11.7223 157.83 11.1186C158.571 10.5149 159.436 10.2131 160.426 10.2131C160.716 10.2131 161.001 10.2372 161.283 10.2855C161.573 10.3258 161.851 10.3861 162.116 10.4666V16.1534C161.786 16.0407 161.38 15.9562 160.897 15.8999C160.414 15.8435 159.999 15.8153 159.653 15.8153C159.001 15.8153 158.414 15.9643 157.89 16.2621C157.375 16.5518 156.969 16.9624 156.671 17.4936C156.373 18.0168 156.224 18.6326 156.224 19.3409V29H149.559ZM164.302 29V10.4545H170.966V29H164.302ZM167.634 8.52273C166.733 8.52273 165.96 8.2249 165.316 7.62926C164.672 7.03362 164.35 6.31723 164.35 5.48011C164.35 4.64299 164.672 3.92661 165.316 3.33096C165.96 2.73532 166.733 2.4375 167.634 2.4375C168.544 2.4375 169.316 2.73532 169.952 3.33096C170.596 3.92661 170.918 4.64299 170.918 5.48011C170.918 6.31723 170.596 7.03362 169.952 7.62926C169.316 8.2249 168.544 8.52273 167.634 8.52273ZM183.297 29.3381C181.285 29.3381 179.562 28.9396 178.129 28.1428C176.696 27.3378 175.598 26.219 174.833 24.7862C174.068 23.3454 173.686 21.6752 173.686 19.7756C173.686 17.8759 174.068 16.2098 174.833 14.777C175.598 13.3362 176.696 12.2173 178.129 11.4205C179.562 10.6155 181.285 10.2131 183.297 10.2131C185.309 10.2131 187.032 10.6155 188.464 11.4205C189.897 12.2173 190.996 13.3362 191.761 14.777C192.525 16.2098 192.908 17.8759 192.908 19.7756C192.908 21.6752 192.525 23.3454 191.761 24.7862C190.996 26.219 189.897 27.3378 188.464 28.1428C187.032 28.9396 185.309 29.3381 183.297 29.3381ZM183.345 24.4119C183.909 24.4119 184.396 24.2228 184.806 23.8445C185.217 23.4661 185.535 22.9268 185.76 22.2266C185.985 21.5263 186.098 20.6932 186.098 19.7273C186.098 18.7533 185.985 17.9202 185.76 17.228C185.535 16.5277 185.217 15.9884 184.806 15.6101C184.396 15.2318 183.909 15.0426 183.345 15.0426C182.75 15.0426 182.238 15.2318 181.812 15.6101C181.385 15.9884 181.059 16.5277 180.834 17.228C180.608 17.9202 180.496 18.7533 180.496 19.7273C180.496 20.6932 180.608 21.5263 180.834 22.2266C181.059 22.9268 181.385 23.4661 181.812 23.8445C182.238 24.2228 182.75 24.4119 183.345 24.4119ZM207.734 3.11363L199.766 32.7188H194.115L202.084 3.11363H207.734ZM214.792 29.2898C213.608 29.2898 212.562 29.0966 211.652 28.7102C210.751 28.3158 210.042 27.7202 209.527 26.9233C209.012 26.1264 208.755 25.1122 208.755 23.8807C208.755 22.8665 208.928 22.0012 209.274 21.2848C209.62 20.5604 210.103 19.9688 210.723 19.5099C211.342 19.0511 212.063 18.701 212.884 18.4595C213.713 18.218 214.606 18.0611 215.564 17.9886C216.603 17.9081 217.436 17.8116 218.064 17.6989C218.699 17.5781 219.158 17.4131 219.44 17.2038C219.722 16.9865 219.863 16.7008 219.863 16.3466V16.2983C219.863 15.8153 219.677 15.4451 219.307 15.1875C218.937 14.9299 218.462 14.8011 217.882 14.8011C217.247 14.8011 216.727 14.942 216.325 15.2237C215.931 15.4974 215.693 15.92 215.613 16.4915H209.479C209.56 15.3646 209.918 14.3262 210.554 13.3764C211.198 12.4186 212.135 11.6539 213.367 11.0824C214.598 10.5028 216.136 10.2131 217.979 10.2131C219.307 10.2131 220.498 10.37 221.553 10.6839C222.607 10.9898 223.505 11.4205 224.245 11.9759C224.986 12.5232 225.549 13.1671 225.936 13.9077C226.33 14.6402 226.527 15.437 226.527 16.2983V29H220.297V26.392H220.152C219.782 27.0843 219.331 27.6437 218.8 28.0703C218.277 28.4969 217.677 28.8068 217.001 29C216.333 29.1932 215.596 29.2898 214.792 29.2898ZM216.965 25.0881C217.472 25.0881 217.947 24.9834 218.39 24.7741C218.84 24.5649 219.207 24.263 219.488 23.8686C219.77 23.4742 219.911 22.9953 219.911 22.4318V20.8864C219.734 20.9588 219.545 21.0272 219.343 21.0916C219.15 21.156 218.941 21.2164 218.716 21.2727C218.498 21.3291 218.265 21.3814 218.015 21.4297C217.774 21.478 217.52 21.5223 217.255 21.5625C216.739 21.643 216.317 21.7758 215.987 21.9609C215.665 22.138 215.423 22.3594 215.262 22.625C215.109 22.8826 215.033 23.1723 215.033 23.4943C215.033 24.0095 215.214 24.4039 215.576 24.6776C215.939 24.9512 216.401 25.0881 216.965 25.0881Z" fill="white"/>
</g>
<defs>
<clipPath id="clip0_283_6318">
<rect width="229" height="32" fill="white"/>
</clipPath>
</defs>
</svg>
